#define clear_width 13
#define clear_height 13
static char clear_bits[] = {
  0x40, 0x00, 0xE0, 0x00, 0x0C, 0x06, 0xE4, 0x04, 0xF0, 0x01, 0xFA, 0x0B, 
  0xFB, 0x1B, 0xFA, 0x0B, 0xF0, 0x01, 0xE4, 0x04, 0x0C, 0x06, 0xE0, 0x00, 
  0x40, 0x00, };
