#define clouds_width 13
#define clouds_height 5
static char clouds_bits[] = {
  0x00, 0x03, 0x8C, 0x07, 0xDE, 0x0F, 0xFF, 0x1F, 0xFE, 0x0F, };
