#define fog_width 14
#define fog_height 12
static char fog_bits[] = {
  0x0F, 0x07, 0x0F, 0x07, 0xF0, 0x38, 0xF0, 0x38, 0x0F, 0x07, 0x0F, 0x07, 
  0xF0, 0x38, 0xF0, 0x38, 0x0F, 0x07, 0x0F, 0x07, 0xF0, 0x38, 0xF0, 0x38, 
  };
