#define rain_width 13
#define rain_height 10
static char rain_bits[] = {
  0x00, 0x03, 0x8C, 0x07, 0xDE, 0x0F, 0xFF, 0x1F, 0xFE, 0x0F, 0x24, 0x0A, 
  0x90, 0x00, 0x02, 0x15, 0x40, 0x04, 0x48, 0x02, };
