#define snow_width 9
#define snow_height 9
static char snow_bits[] = {
  0xBA, 0x00, 0x93, 0x01, 0x54, 0x00, 0x29, 0x01, 0xC7, 0x01, 0x29, 0x01, 
  0x54, 0x00, 0x93, 0x01, 0xBA, 0x00, };
