#define tstorm_width 13
#define tstorm_height 10
static char tstorm_bits[] = {
  0x00, 0x03, 0x8C, 0x07, 0xDE, 0x0F, 0xFF, 0x1F, 0xFE, 0x0F, 0x04, 0x01, 
  0x0C, 0x02, 0x18, 0x01, 0x28, 0x02, 0x48, 0x02, };
